# xmcd
# 
# Track frame offsets:
#     150
#     19848
#     36365
#     50591
# 
# Disc length: 934
# 
# Revision: 7
# Processed by: cddbd v1.5.2PL0 Copyright (c) Steve Scherf et al.
# Submitted via: BonkEnc v1.0.6
# 
DISCID=2f03a404
DTITLE=星村麻衣 - 桜日和 
DYEAR=2007
DGENRE=pop
TTITLE0=桜日和 
TTITLE1=Wonder Land 
TTITLE2=夜月 
TTITLE3=桜日和(Instrumental)
EXTD=YEAR: 1994
EXTT0=
EXTT1=
EXTT2=
EXTT3=
PLAYORDER=
